<?xml version="1.0" encoding="UTF-8"?><svg xmlns="http://www.w3.org/2000/svg" width="24" height="24" viewBox="0 0 24 24"><path style="fill:#44A7FD" d="M12 24c-3.2 0-6.2-1.2-8.5-3.5-4.7-4.7-4.7-12.3 0-17C5.8 1.2 8.8 0 12 0s6.2 1.2 8.5 3.5c4.7 4.7 4.7 12.3 0 17-2.3 2.3-5.3 3.5-8.5 3.5zm0-22C9.3 2 6.8 3 4.9 4.9 1 8.8 1 15.2 4.9 19.1 6.8 21 9.3 22 12 22s5.2-1 7.1-2.9C23 15.2 23 8.9 19.1 5c-1.9-2-4.4-3-7.1-3z"/><path style="fill: #44A7FD" d="M12 18c-.6 0-1-.4-1-1V7c0-.6.4-1 1-1s1 .4 1 1v10c0 .6-.4 1-1 1z"/><path style="fill: #44A7FD" d="M17 13H7c-.6 0-1-.4-1-1s.4-1 1-1h10c.6 0 1 .4 1 1s-.4 1-1 1z"/><metadata><rdf:RDF xmlns:rdf="http://www.w3.org/1999/02/22-rdf-syntax-ns#" xmlns:rdfs="http://www.w3.org/2000/01/rdf-schema#" xmlns:dc="http://purl.org/dc/elements/1.1/"><rdf:Description about="https://iconscout.com/legal#licenses" dc:title="plus" dc:description="plus" dc:publisher="Iconscout" dc:date="2017-09-14" dc:format="image/svg+xml" dc:language="en"><dc:creator><rdf:Bag><rdf:li>Cosmin Negoita</rdf:li></rdf:Bag></dc:creator></rdf:Description></rdf:RDF></metadata></svg>