<?xml version="1.0" encoding="utf-8"?>
<!-- Generator: Adobe Illustrator 25.0.0, SVG Export Plug-In . SVG Version: 6.00 Build 0)  -->
<svg version="1.1" id="Layer_1" xmlns="http://www.w3.org/2000/svg" xmlns:xlink="http://www.w3.org/1999/xlink" x="0px" y="0px"
	 viewBox="0 0 612 792" style="enable-background:new 0 0 612 792;" xml:space="preserve">
<style type="text/css">
	.st0{fill:#231F20;}
</style>
<g>
	<path class="st0" d="M466,404.9c0,71.7-47.2,132.4-112.2,152.7c60.5-20,104.2-77,104.2-144.3c0-84-68-152-152-152s-152,68-152,152
		c0,67.3,43.6,124.3,104.2,144.3c-65-20.3-112.2-81-112.2-152.7c0-88.4,71.6-160,160-160S466,316.5,466,404.9z"/>
	<path class="st0" d="M362.1,420.6c5.8,12.9,4,75.4,2.2,87.8c-1.8,12.4-10.7,11.9-10.7,11.9H246c55.3-1.9,71.4-110.2,71.4-110.2
		h-37.5c-0.4,41.7-2.9,75.8-2.9,75.8h-29c0,0,11.7-38.4,15.1-67.4c0.5-4.5,0.9-8.7,0.9-12.6c0.4-29-16-80-16-80h29
		c2.1,20.8,2.9,44.2,3,66.5h37.4c0,0-16.1-108.3-71.4-110.2h107.6c0,0,8.9-0.5,10.7,11.9c1.8,12.4,3.6,74.9-2.2,87.7
		c-4.6,10.2-13.5,17.1-16.9,19.4C348.6,403.5,357.5,410.3,362.1,420.6z"/>
</g>
</svg>
